<svg width="24" height="24" xmlns="http://www.w3.org/2000/svg">

 <g>
  <title>background</title>
  <rect fill="none" id="canvas_background" height="402" width="582" y="-1" x="-1"/>
 </g>
 <g>
  <title fill="#ffffff">Layer 1</title>
  <path fill="#ffffff" id="svg_2" d="m20.756,5.345c-0.191,-0.219 -0.466,-0.345 -0.756,-0.345l-13.819,0l-0.195,-1.164c-0.08,-0.482 -0.497,-0.836 -0.986,-0.836l-2.25,0c-0.553,0 -1,0.447 -1,1s0.447,1 1,1l1.403,0l1.86,11.164c0.008,0.045 0.031,0.082 0.045,0.124c0.016,0.053 0.029,0.103 0.054,0.151c0.032,0.066 0.075,0.122 0.12,0.179c0.031,0.039 0.059,0.078 0.095,0.112c0.058,0.054 0.125,0.092 0.193,0.13c0.038,0.021 0.071,0.049 0.112,0.065c0.116,0.047 0.238,0.075 0.367,0.075c0.001,0 11.001,0 11.001,0c0.553,0 1,-0.447 1,-1s-0.447,-1 -1,-1l-10.153,0l-0.166,-1l11.319,0c0.498,0 0.92,-0.366 0.99,-0.858l1,-7c0.041,-0.288 -0.045,-0.579 -0.234,-0.797zm-1.909,1.655l-0.285,2l-3.562,0l0,-2l3.847,0zm-4.847,0l0,2l-3,0l0,-2l3,0zm0,3l0,2l-3,0l0,-2l3,0zm-4,-3l0,2l-3,0c-0.053,0 -0.101,0.015 -0.148,0.03l-0.338,-2.03l3.486,0zm-2.986,3l2.986,0l0,2l-2.653,0l-0.333,-2zm7.986,2l0,-2l3.418,0l-0.285,2l-3.133,0z"/>
  <circle fill="#ffffff" id="svg_3" r="1.5" cy="19.5" cx="8.5"/>
  <circle fill="#ffffff" id="svg_4" r="1.5" cy="19.5" cx="17.5"/>
 </g>
</svg>