<svg width="30.000000000000004" height="30.000000000000004" xmlns="http://www.w3.org/2000/svg">

 <g>
  <title>background</title>
  <rect fill="none" id="canvas_background" height="402" width="582" y="-1" x="-1"/>
 </g>
 <g>
  <title fill="#ffffff">Layer 1</title>
  <path id="svg_1" fill="#ffffff" d="m3.8,4.5c-0.4,0 -0.8,0.3 -0.8,0.8c0,0.5 0.4,0.8 0.8,0.8c0.5,0 0.8,-0.4 0.8,-0.8c0.1,-0.5 -0.3,-0.8 -0.8,-0.8zm23.4,-2.9l-24.4,0c-1.5,0 -2.7,1.2 -2.7,2.7l0,21.3c0,1.5 1.2,2.7 2.7,2.7l24.5,0c1.5,0 2.7,-1.2 2.7,-2.7l0,-21.3c-0.1,-1.4 -1.3,-2.7 -2.8,-2.7zm1.2,24.1c0,0.7 -0.5,1.2 -1.2,1.2l-24.4,0c-0.7,0 -1.2,-0.5 -1.2,-1.2l0,-4.1c0.2,0.2 0.5,0.4 0.7,0.7c0.4,0.4 0.8,0.9 1.4,1.2c0.2,0.9 1,1.6 2,1.6c1,0 1.8,-0.7 2,-1.7c1.3,-1 2.1,-2.7 2.8,-4.4c0.5,-1.3 1.1,-2.6 1.8,-3.2c0.4,0.6 1,1 1.7,1c0.7,0 1.4,-0.4 1.7,-1c0.4,0.3 0.8,0.7 1.2,1c0.6,0.6 1.3,1.2 2.1,1.6c0.3,0.7 1,1.3 1.9,1.3c1,0 1.8,-0.7 2,-1.6c1.2,-0.8 1.9,-2.2 2.7,-3.6c1,-1.9 1.7,-3.1 3,-3.4l0,14.6l-0.2,0zm-23.3,-2.7c0,-0.3 0.2,-0.5 0.5,-0.5c0.3,0 0.5,0.2 0.5,0.5c0,0.3 -0.2,0.5 -0.5,0.5c-0.2,0 -0.5,-0.2 -0.5,-0.5zm8.3,-8.3c0,-0.3 0.2,-0.5 0.5,-0.5c0.3,0 0.5,0.2 0.5,0.5c0,0.3 -0.2,0.5 -0.5,0.5c-0.2,0 -0.5,-0.3 -0.5,-0.5zm7,2.8c0,-0.3 0.2,-0.5 0.5,-0.5s0.5,0.2 0.5,0.5s-0.3,0.5 -0.5,0.5s-0.5,-0.2 -0.5,-0.5zm8,-8.1c-2.3,0.3 -3.3,2.4 -4.3,4.3c-0.5,1 -1,2 -1.7,2.7c-0.4,-0.5 -0.9,-0.8 -1.6,-0.8c-0.8,0 -1.4,0.4 -1.8,1.1c-0.4,-0.3 -0.8,-0.6 -1.2,-1c-0.6,-0.6 -1.3,-1.2 -2.1,-1.6c-0.3,-0.8 -1,-1.4 -1.9,-1.4c-0.9,0 -1.6,0.6 -1.9,1.4c-1.4,0.6 -2.2,2.4 -3,4.3c-0.6,1.3 -1.1,2.6 -1.9,3.4c-0.2,-0.5 -0.7,-0.8 -1.3,-0.8c-0.7,0 -1.3,0.4 -1.7,0.8c-0.2,-0.2 -0.4,-0.4 -0.6,-0.6c-0.5,-0.6 -1.1,-1.1 -1.8,-1.3l0,-10.9l26.9,0l0,0.4l-0.1,0zm0,-1.9l-26.8,0l0,-3.2c0,-0.7 0.5,-1.2 1.2,-1.2l24.5,0c0.7,0 1.2,0.5 1.2,1.2l0,3.2l-0.1,0zm-22,-3c-0.4,0 -0.8,0.3 -0.8,0.8c0,0.5 0.4,0.8 0.8,0.8c0.5,0 0.8,-0.4 0.8,-0.8c0,-0.5 -0.3,-0.8 -0.8,-0.8zm2.6,0c-0.5,0 -0.8,0.4 -0.8,0.8c0,0.5 0.4,0.8 0.8,0.8c0.5,0 0.8,-0.4 0.8,-0.8c0,-0.5 -0.4,-0.8 -0.8,-0.8z"/>
 </g>
</svg>